<svg width="44" height="35" viewBox="0 0 44 35" fill="none" xmlns="http://www.w3.org/2000/svg">
<g clip-path="url(#clip0_60_28390)">
<path d="M22.9454 22.678L2.26539 9.21851C1.19626 8.49541 0.447571 7.37181 0.180534 6.08968C-0.086503 4.80754 0.149476 3.46944 0.837655 2.36351C1.52583 1.25757 2.61116 0.47228 3.85993 0.176733C5.10869 -0.118814 6.421 0.0990258 7.51426 0.783344L22.6861 10.6572L36.3084 0.904678C37.3712 0.168107 38.6746 -0.111341 39.9372 0.12669C41.1997 0.36472 42.3201 1.10112 43.0562 2.17685C43.7924 3.25257 44.0853 4.58128 43.8716 5.87599C43.6579 7.1707 42.9549 8.32749 41.9143 9.09651L22.9454 22.678Z" fill="#EA4435"/>
<path d="M40.7407 35H34.2222V5C34.2222 3.67392 34.7373 2.40215 35.6541 1.46447C36.571 0.526784 37.8145 8.34465e-07 39.1111 8.34465e-07C40.4077 8.34465e-07 41.6512 0.526784 42.5681 1.46447C43.4849 2.40215 44 3.67392 44 5L44 31.6667C44 32.5507 43.6566 33.3986 43.0454 34.0237C42.4342 34.6488 41.6052 35 40.7407 35Z" fill="#00AC47"/>
<path d="M43.9287 4.27599C43.9144 4.17599 43.9155 4.07383 43.8952 3.97399C43.8639 3.82099 43.8057 3.67966 43.7611 3.53199C43.7178 3.36298 43.6657 3.19646 43.6049 3.03316C43.5723 2.95399 43.5222 2.88449 43.4852 2.80749C43.3838 2.58532 43.2664 2.37113 43.1341 2.16666C43.069 2.06983 42.9875 1.98733 42.9154 1.89566C42.7918 1.72906 42.6582 1.57047 42.5154 1.42083C42.407 1.31299 42.2835 1.22283 42.1657 1.12566C42.0404 1.01585 41.9099 0.912558 41.7745 0.81616C41.6453 0.729826 41.5039 0.663326 41.3671 0.58966C41.2231 0.512826 41.0819 0.429159 40.932 0.367826C40.7871 0.308159 40.6327 0.27016 40.4813 0.22466C40.3299 0.17916 40.1793 0.12466 40.0238 0.0951595C39.8312 0.0635169 39.637 0.0434827 39.442 0.0351599C39.3184 0.0263266 39.1958 0.0041597 39.0716 0.0051597C38.8411 0.0120313 38.6113 0.0357024 38.3841 0.0759931C38.2923 0.0899931 38.1999 0.0888264 38.1088 0.10816C37.8014 0.204252 37.4947 0.303145 37.1889 0.404826C37.105 0.441493 37.0315 0.495993 36.9502 0.537327C36.1226 0.932256 35.4246 1.56386 34.9405 2.35581C34.4565 3.14776 34.207 4.06616 34.2223 4.99999V14.6033L41.9142 9.09616C42.6695 8.57771 43.2618 7.84647 43.6192 6.99095C43.9767 6.13542 44.0845 5.19261 43.9287 4.27599Z" fill="#FFBA00"/>
<path d="M4.88889 0C6.1855 0 7.42901 0.526784 8.34586 1.46447C9.2627 2.40215 9.77778 3.67392 9.77778 5V35H3.25926C2.39485 35 1.56584 34.6488 0.954615 34.0237C0.343385 33.3986 0 32.5507 0 31.6667V5C0 3.67392 0.515078 2.40215 1.43192 1.46447C2.34877 0.526784 3.59227 0 4.88889 0Z" fill="#4285F4"/>
<path d="M0.0721892 4.27621C0.08653 4.17621 0.0853894 4.07405 0.10576 3.97421C0.137049 3.82121 0.195226 3.67988 0.239878 3.53221C0.283164 3.36326 0.335278 3.1968 0.395997 3.03355C0.428589 2.95438 0.478782 2.88488 0.515937 2.80788C0.617268 2.58562 0.734598 2.37137 0.86696 2.16688C0.932145 2.07005 1.01363 1.98755 1.08566 1.89588C1.20921 1.72928 1.34277 1.5707 1.48557 1.42105C1.59394 1.31321 1.71746 1.22305 1.83545 1.12588C1.96063 1.01603 2.09117 0.912734 2.22656 0.81638C2.35579 0.730047 2.49724 0.663547 2.63397 0.58988C2.77526 0.508143 2.92048 0.433716 3.06908 0.36688C3.21412 0.307213 3.3686 0.269214 3.51983 0.223714C3.67106 0.178214 3.8218 0.123713 3.97727 0.0942135C4.16988 0.0625793 4.36414 0.0425451 4.55905 0.0342139C4.6829 0.0253805 4.80529 0.00321366 4.92946 0.00421366C5.16 0.0110767 5.38976 0.0347479 5.617 0.075047C5.70875 0.089047 5.80115 0.0878803 5.89241 0.107214C6.05015 0.148321 6.20572 0.19772 6.35849 0.255214C6.51211 0.296974 6.66358 0.346592 6.81234 0.40388C6.8961 0.440547 6.9696 0.495047 7.05108 0.536381C7.26232 0.637881 7.46612 0.754852 7.66089 0.886381C8.31377 1.34486 8.84773 1.95898 9.21666 2.67571C9.58559 3.39244 9.77839 4.19024 9.77843 5.00021V14.6035L2.08657 9.09671C1.33137 8.57811 0.739223 7.84687 0.381739 6.99139C0.0242546 6.13592 -0.0832617 5.19285 0.0721892 4.27621Z" fill="#C52528"/>
</g>
<defs>
<clipPath id="clip0_60_28390">
<rect width="44" height="35" fill="white"/>
</clipPath>
</defs>
</svg>
