<svg width="27" height="27" viewBox="0 0 27 27" fill="none" xmlns="http://www.w3.org/2000/svg">
<g clip-path="url(#clip0_48_14972)">
<path d="M26.9854 13.7526C26.9854 12.6464 26.8935 11.8392 26.6947 11.0021H13.7686V15.9948H21.3559C21.203 17.2356 20.377 19.1041 18.5413 20.3597L18.5155 20.5269L22.6025 23.6209L22.8857 23.6485C25.4862 21.3015 26.9854 17.8484 26.9854 13.7526Z" fill="#4285F4"/>
<path d="M13.7688 26.9073C17.4859 26.9073 20.6065 25.7113 22.8859 23.6485L18.5415 20.3598C17.3789 21.152 15.8185 21.7051 13.7688 21.7051C10.128 21.7051 7.03801 19.3583 5.9365 16.1145L5.77504 16.1279L1.5253 19.3418L1.46973 19.4928C3.7337 23.8876 8.38407 26.9073 13.7688 26.9073Z" fill="#34A853"/>
<path d="M5.93625 16.1145C5.64561 15.2774 5.4774 14.3804 5.4774 13.4536C5.4774 12.5268 5.64561 11.6299 5.92096 10.7928L5.91326 10.6145L1.61026 7.34894L1.46948 7.41438C0.536386 9.23811 0.000976562 11.2861 0.000976562 13.4536C0.000976562 15.6211 0.536386 17.669 1.46948 19.4928L5.93625 16.1145Z" fill="#FBBC05"/>
<path d="M13.7688 5.20203C16.3539 5.20203 18.0978 6.29327 19.0922 7.20519L22.9776 3.49794C20.5913 1.33042 17.4859 0 13.7688 0C8.38407 0 3.7337 3.01957 1.46973 7.41439L5.92121 10.7928C7.03801 7.54897 10.128 5.20203 13.7688 5.20203Z" fill="#EB4335"/>
</g>
<defs>
<clipPath id="clip0_48_14972">
<rect width="27" height="27" fill="white"/>
</clipPath>
</defs>
</svg>
