<svg width="32" height="33" viewBox="0 0 32 33" fill="none" xmlns="http://www.w3.org/2000/svg">
<path d="M21.7068 0.537109H10.1293C7.57055 0.537109 5.11658 1.57422 3.30725 3.42028C1.49792 5.26634 0.481445 7.77013 0.481445 10.3809L0.481445 22.1934C0.481445 24.8041 1.49792 27.3079 3.30725 29.1539C5.11658 31 7.57055 32.0371 10.1293 32.0371H21.7068C24.2656 32.0371 26.7196 31 28.5289 29.1539C30.3382 27.3079 31.3547 24.8041 31.3547 22.1934V10.3809C31.3547 7.77013 30.3382 5.26634 28.5289 3.42028C26.7196 1.57422 24.2656 0.537109 21.7068 0.537109ZM28.4603 22.1934C28.4603 25.993 25.4309 29.084 21.7068 29.084H10.1293C6.40525 29.084 3.37581 25.993 3.37581 22.1934V10.3809C3.37581 6.58117 6.40525 3.49023 10.1293 3.49023H21.7068C25.4309 3.49023 28.4603 6.58117 28.4603 10.3809V22.1934Z" fill="url(#paint0_linear_45_14914)"/>
<path d="M15.9185 8.41211C13.8715 8.41211 11.9083 9.24179 10.4608 10.7186C9.01337 12.1955 8.2002 14.1985 8.2002 16.2871C8.2002 18.3757 9.01337 20.3787 10.4608 21.8556C11.9083 23.3324 13.8715 24.1621 15.9185 24.1621C17.9655 24.1621 19.9287 23.3324 21.3762 21.8556C22.8236 20.3787 23.6368 18.3757 23.6368 16.2871C23.6368 14.1985 22.8236 12.1955 21.3762 10.7186C19.9287 9.24179 17.9655 8.41211 15.9185 8.41211ZM15.9185 21.209C14.6396 21.2074 13.4135 20.6884 12.5092 19.7657C11.6048 18.843 11.0961 17.592 11.0946 16.2871C11.0946 13.5722 13.2595 11.3652 15.9185 11.3652C18.5775 11.3652 20.7424 13.5722 20.7424 16.2871C20.7424 19 18.5775 21.209 15.9185 21.209Z" fill="url(#paint1_linear_45_14914)"/>
<path d="M24.215 8.87115C24.783 8.87115 25.2435 8.40134 25.2435 7.8218C25.2435 7.24227 24.783 6.77246 24.215 6.77246C23.647 6.77246 23.1865 7.24227 23.1865 7.8218C23.1865 8.40134 23.647 8.87115 24.215 8.87115Z" fill="url(#paint2_linear_45_14914)"/>
<defs>
<linearGradient id="paint0_linear_45_14914" x1="3.30635" y1="29.1549" x2="29.0367" y2="3.93652" gradientUnits="userSpaceOnUse">
<stop stop-color="#FFC107"/>
<stop offset="0.507" stop-color="#F44336"/>
<stop offset="0.99" stop-color="#9C27B0"/>
</linearGradient>
<linearGradient id="paint1_linear_45_14914" x1="10.4617" y1="21.8547" x2="21.5947" y2="10.9432" gradientUnits="userSpaceOnUse">
<stop stop-color="#FFC107"/>
<stop offset="0.507" stop-color="#F44336"/>
<stop offset="0.99" stop-color="#9C27B0"/>
</linearGradient>
<linearGradient id="paint2_linear_45_14914" x1="23.4875" y1="8.56402" x2="24.9717" y2="7.10942" gradientUnits="userSpaceOnUse">
<stop stop-color="#FFC107"/>
<stop offset="0.507" stop-color="#F44336"/>
<stop offset="0.99" stop-color="#9C27B0"/>
</linearGradient>
</defs>
</svg>
