<svg width="29" height="29" viewBox="0 0 29 29" fill="none" xmlns="http://www.w3.org/2000/svg">
<g clip-path="url(#clip0_48_14983)">
<path d="M0 9.0625H6.48513V29H0V9.0625ZM24.1497 9.29631C24.0809 9.27456 24.0156 9.251 23.9431 9.23106C23.8561 9.21136 23.7684 9.19444 23.6803 9.18031C23.2974 9.10202 22.9075 9.06255 22.5167 9.0625C18.7358 9.0625 16.3379 11.8121 15.5476 12.8742V9.0625H9.0625V29H15.5476V18.125C15.5476 18.125 20.4486 11.2991 22.5167 16.3125V29H29V15.5458C28.9973 14.1142 28.5197 12.7239 27.6419 11.5929C26.7641 10.462 25.5359 9.65422 24.1497 9.29631Z" fill="#1976D2"/>
<path d="M3.17188 6.34375C4.92365 6.34375 6.34375 4.92365 6.34375 3.17188C6.34375 1.4201 4.92365 0 3.17188 0C1.4201 0 0 1.4201 0 3.17188C0 4.92365 1.4201 6.34375 3.17188 6.34375Z" fill="#1976D2"/>
</g>
<defs>
<clipPath id="clip0_48_14983">
<rect width="29" height="29" fill="white"/>
</clipPath>
</defs>
</svg>
