<svg width="40" height="35" viewBox="0 0 40 35" fill="none" xmlns="http://www.w3.org/2000/svg">
<g clip-path="url(#clip0_194_13)">
<path d="M35.2776 0.138885H4.72201C3.50643 0.138885 2.34064 0.621771 1.4811 1.48131C0.621558 2.34085 0.138672 3.50664 0.138672 4.72222V23.0556C0.138672 24.2711 0.621558 25.4369 1.4811 26.2965C2.34064 27.156 3.50643 27.6389 4.72201 27.6389H8.90812L22.3067 35.0792C22.5351 35.2086 22.7929 35.277 23.0553 35.2778C23.3295 35.2777 23.5987 35.2038 23.8345 35.0639C24.0626 34.9287 24.2515 34.7364 24.3828 34.5061C24.514 34.2757 24.5831 34.0151 24.5831 33.75V27.6389H35.2776C36.4931 27.6389 37.6589 27.156 38.5185 26.2965C39.378 25.4369 39.8609 24.2711 39.8609 23.0556V4.72222C39.8609 3.50664 39.378 2.34085 38.5185 1.48131C37.6589 0.621771 36.4931 0.138885 35.2776 0.138885Z" fill="#8C9EFF"/>
<path d="M27.6385 15.4167C27.4374 15.4178 27.2381 15.3793 27.052 15.3032C26.8658 15.2272 26.6965 15.1152 26.5538 14.9736C26.4188 14.8251 26.3103 14.6546 26.2329 14.4694C26.1521 14.2866 26.1104 14.0888 26.1104 13.8889C26.1104 13.6889 26.1521 13.4912 26.2329 13.3083C26.3015 13.1187 26.411 12.9465 26.5536 12.804C26.6962 12.6614 26.8683 12.5519 27.0579 12.4833C27.4299 12.3305 27.8471 12.3305 28.219 12.4833C28.4042 12.5607 28.5747 12.6692 28.7232 12.8042C28.8623 12.9494 28.9713 13.1208 29.044 13.3083C29.161 13.5865 29.193 13.8932 29.1359 14.1896C29.0788 14.4859 28.9352 14.7588 28.7232 14.9736C28.5747 15.1085 28.4042 15.2171 28.219 15.2944C28.0354 15.3727 27.8381 15.4142 27.6385 15.4167Z" fill="black"/>
<path d="M35.2778 0.138885H20V33.75L22.3069 35.0333C22.5308 35.1788 22.7889 35.2631 23.0556 35.2778C23.3298 35.2777 23.5989 35.2038 23.8347 35.0639C24.0628 34.9287 24.2517 34.7364 24.383 34.5061C24.5142 34.2757 24.5833 34.0151 24.5833 33.75V27.6389H35.2778C36.4934 27.6389 37.6591 27.156 38.5187 26.2965C39.3782 25.4369 39.8611 24.2711 39.8611 23.0556V4.72222C39.8611 3.50664 39.3782 2.34085 38.5187 1.48131C37.6591 0.621771 36.4934 0.138885 35.2778 0.138885Z" fill="#5F7CF9"/>
<path d="M19.9998 15.4167C19.8002 15.4142 19.603 15.3727 19.4193 15.2944C19.2341 15.2171 19.0636 15.1085 18.9151 14.9736C18.7031 14.7588 18.5595 14.4859 18.5024 14.1896C18.4453 13.8932 18.4773 13.5865 18.5943 13.3083C18.667 13.1208 18.776 12.9494 18.9151 12.8042C19.0636 12.6692 19.2341 12.5607 19.4193 12.4833C19.7912 12.3305 20.2084 12.3305 20.5804 12.4833C20.77 12.5519 20.9422 12.6614 21.0847 12.804C21.2273 12.9465 21.3368 13.1187 21.4054 13.3083C21.4862 13.4912 21.528 13.6889 21.528 13.8889C21.528 14.0888 21.4862 14.2866 21.4054 14.4694C21.328 14.6546 21.2195 14.8251 21.0846 14.9736C20.9418 15.1152 20.7725 15.2272 20.5864 15.3032C20.4002 15.3793 20.2009 15.4178 19.9998 15.4167ZM12.3609 15.4167C12.1613 15.4142 11.9641 15.3727 11.7804 15.2944C11.5952 15.2171 11.4247 15.1085 11.2762 14.9736C11.0642 14.7588 10.9206 14.4859 10.8635 14.1896C10.8064 13.8932 10.8384 13.5865 10.9554 13.3083C11.0281 13.1208 11.1371 12.9494 11.2762 12.8042C11.4247 12.6692 11.5952 12.5607 11.7804 12.4833C12.1523 12.3305 12.5695 12.3305 12.9415 12.4833C13.1311 12.5519 13.3033 12.6614 13.4458 12.804C13.5884 12.9465 13.6979 13.1187 13.7665 13.3083C13.8473 13.4912 13.8891 13.6889 13.8891 13.8889C13.8891 14.0888 13.8473 14.2866 13.7665 14.4694C13.6891 14.6546 13.5806 14.8251 13.4457 14.9736C13.3029 15.1152 13.1336 15.2272 12.9475 15.3032C12.7613 15.3793 12.562 15.4178 12.3609 15.4167Z" fill="#5F7CF9"/>
<path d="M21.4056 13.3083C21.3369 13.1187 21.2275 12.9466 21.0849 12.804C20.9423 12.6614 20.7701 12.552 20.5806 12.4833C20.3969 12.4051 20.1996 12.3635 20 12.3611V15.4167C20.2011 15.4178 20.4004 15.3793 20.5865 15.3033C20.7727 15.2272 20.942 15.1152 21.0847 14.9736C21.2197 14.8251 21.3282 14.6546 21.4056 14.4694C21.4864 14.2866 21.5281 14.0888 21.5281 13.8889C21.5281 13.689 21.4864 13.4912 21.4056 13.3083ZM27.6389 15.4167C27.4378 15.4178 27.2385 15.3793 27.0524 15.3033C26.8662 15.2272 26.6969 15.1152 26.5542 14.9736C26.4192 14.8251 26.3107 14.6546 26.2333 14.4694C26.1525 14.2866 26.1108 14.0888 26.1108 13.8889C26.1108 13.689 26.1525 13.4912 26.2333 13.3083C26.3019 13.1187 26.4114 12.9466 26.554 12.804C26.6966 12.6614 26.8687 12.552 27.0583 12.4833C27.4303 12.3305 27.8475 12.3305 28.2194 12.4833C28.4046 12.5607 28.5751 12.6692 28.7236 12.8042C28.8627 12.9495 28.9717 13.1208 29.0444 13.3083C29.1614 13.5866 29.1934 13.8932 29.1363 14.1896C29.0792 14.486 28.9356 14.7588 28.7236 14.9736C28.5751 15.1086 28.4046 15.2171 28.2194 15.2944C28.0358 15.3727 27.8385 15.4143 27.6389 15.4167Z" fill="#4062ED"/>
</g>
<defs>
<clipPath id="clip0_194_13">
<rect width="40" height="35" fill="white"/>
</clipPath>
</defs>
</svg>
