<svg width="30" height="33" viewBox="0 0 30 33" fill="none" xmlns="http://www.w3.org/2000/svg">
<path d="M24.192 21.8359C22.798 21.8355 21.4593 22.3924 20.463 23.3873L10.7516 17.8163C10.9512 16.976 10.9512 16.0993 10.7516 15.2591L20.46 9.68807C21.367 10.5882 22.5583 11.1296 23.8208 11.2153C25.0833 11.301 26.3345 10.9254 27.3503 10.1558C28.3662 9.38618 29.0804 8.27278 29.3651 7.01492C29.6498 5.75706 29.4864 4.43688 28.9042 3.29071C28.322 2.14454 27.3589 1.24723 26.1874 0.759424C25.016 0.271613 23.7126 0.225153 22.5106 0.628359C21.3086 1.03157 20.2865 1.85811 19.6273 2.96003C18.9681 4.06194 18.7148 5.36728 18.9128 6.64234L8.97535 12.3458C8.1948 11.6823 7.24507 11.2594 6.23745 11.1268C5.22982 10.9942 4.20603 11.1573 3.28599 11.597C2.36596 12.0368 1.5878 12.7349 1.04267 13.6096C0.497533 14.4844 0.208008 15.4995 0.208008 16.5361C0.208008 17.5727 0.497533 18.5878 1.04267 19.4626C1.5878 20.3373 2.36596 21.0355 3.28599 21.4752C4.20603 21.9149 5.22982 22.078 6.23745 21.9454C7.24507 21.8128 8.1948 21.39 8.97535 20.7264L18.9128 26.433C18.741 27.5345 18.9044 28.6633 19.3808 29.6672C19.8573 30.6711 20.624 31.5018 21.5775 32.0473C22.531 32.5929 23.6256 32.827 24.7136 32.7182C25.8016 32.6093 26.8307 32.1628 27.6622 31.4387C28.4938 30.7146 29.0877 29.7478 29.364 28.6686C29.6403 27.5894 29.5857 26.4497 29.2075 25.4032C28.8293 24.3567 28.1457 23.4536 27.2489 22.8158C26.3521 22.1779 25.2852 21.8359 24.192 21.8359Z" fill="#544FE8"/>
</svg>
