<svg width="39" height="33" viewBox="0 0 39 33" fill="none" xmlns="http://www.w3.org/2000/svg">
<path d="M38.434 4.47882C37.0113 5.11488 35.5067 5.53761 33.9665 5.73398C35.5896 4.74688 36.8032 3.18383 37.3774 1.34091C35.8575 2.26493 34.1947 2.91562 32.4608 3.26485C31.3977 2.10123 30.0178 1.29225 28.5004 0.943028C26.9829 0.593801 25.3981 0.720465 23.9518 1.30656C22.5055 1.89266 21.2646 2.9111 20.3902 4.22957C19.5159 5.54804 19.0486 7.10558 19.049 8.69985C19.049 9.32985 19.101 9.93562 19.2286 10.5123C16.1442 10.3573 13.1263 9.53665 10.3725 8.10405C7.61858 6.67144 5.19066 4.65914 3.24746 2.19869C2.2519 3.94782 1.94411 6.02017 2.38678 7.99376C2.82945 9.96736 3.98928 11.6938 5.6301 12.8215C4.40275 12.7878 3.2013 12.452 2.12705 11.8426V11.9298C2.1291 13.7652 2.74792 15.5437 3.87932 16.9661C5.01073 18.3885 6.58563 19.3679 8.33893 19.7395C7.67564 19.9187 6.99205 20.0067 6.30613 20.0011C5.8135 20.0101 5.32136 19.9646 4.83825 19.8655C5.33922 21.443 6.30492 22.8225 7.60238 23.814C8.89984 24.8056 10.4653 25.3605 12.0831 25.4022C9.33865 27.6025 5.95387 28.7961 2.46979 28.7921C1.83394 28.7921 1.2241 28.7631 0.614258 28.6831C4.15958 31.0251 8.29089 32.264 12.5086 32.2499C26.776 32.2499 34.5764 20.1344 34.5764 9.63274C34.5764 9.28139 34.5645 8.94215 34.548 8.60534C36.0772 7.48342 37.3941 6.08504 38.434 4.47882Z" fill="#03A9F4"/>
</svg>
