<svg width="32" height="32" viewBox="0 0 32 32" fill="none" xmlns="http://www.w3.org/2000/svg">
<g clip-path="url(#clip0_48_14987)">
<path d="M27.3376 4.65042C24.6053 1.92928 20.9727 0.289459 17.1163 0.0363148C13.2599 -0.21683 9.44248 0.933957 6.37496 3.27438C3.30743 5.61481 1.19887 8.98534 0.441919 12.7583C-0.315031 16.5313 0.331224 20.4496 2.26034 23.7835L0 32.0002L8.4464 29.7954C10.7825 31.0619 13.4002 31.7255 16.0603 31.7256H16.067C19.2178 31.7253 22.2978 30.7951 24.9177 29.0525C27.5376 27.31 29.5797 24.8333 30.7859 21.9355C31.9922 19.0378 32.3084 15.849 31.6946 12.7724C31.0808 9.69576 29.5646 6.86935 27.3376 4.65042ZM16.067 29.0475H16.0619C13.6903 29.0477 11.3623 28.4131 9.32167 27.2101L8.83791 26.9247L3.8251 28.2328L5.16324 23.3688L4.84791 22.8703C3.2872 20.3944 2.59722 17.4724 2.88643 14.5636C3.17565 11.6548 4.42765 8.92419 6.44564 6.80098C8.46362 4.67777 11.1331 3.28238 14.0345 2.83417C16.936 2.38597 19.9047 2.91036 22.4741 4.32491C25.0435 5.73947 27.0679 7.96397 28.229 10.6487C29.39 13.3335 29.622 16.3262 28.8883 19.1565C28.1547 21.9868 26.4971 24.4941 24.176 26.2843C21.855 28.0745 19.0022 29.0461 16.0661 29.0463L16.067 29.0475Z" fill="#E0E0E0"/>
<path d="M0.731445 31.0883L2.88861 23.2458C1.21748 20.3591 0.549664 17.0042 0.988689 13.7013C1.42771 10.3983 2.94906 7.33181 5.31684 4.97721C7.68463 2.62262 10.7666 1.11147 14.0848 0.678056C17.4031 0.244646 20.7723 0.913189 23.6701 2.58003C26.5678 4.24688 28.8323 6.8189 30.1123 9.89732C31.3923 12.9757 31.6164 16.3886 30.7498 19.6067C29.8833 22.8248 27.9744 25.6684 25.3193 27.6966C22.6641 29.7248 19.411 30.8243 16.0643 30.8246H16.0576C13.5196 30.8241 11.0222 30.191 8.79308 28.983L0.732731 31.087L0.731445 31.0883Z" fill="url(#paint0_linear_48_14987)"/>
<path fill-rule="evenodd" clip-rule="evenodd" d="M12.13 9.12417C11.8353 8.47169 11.5248 8.45857 11.2445 8.44737C11.015 8.43745 10.7523 8.43809 10.4904 8.43809C10.2909 8.44333 10.0947 8.48959 9.91413 8.57396C9.73352 8.65833 9.57239 8.77898 9.44088 8.92833C8.99588 9.34778 8.64355 9.85494 8.40636 10.4175C8.16916 10.98 8.05229 11.5855 8.0632 12.1955C8.0632 14.1232 9.47366 15.9859 9.67038 16.2474C9.8671 16.5088 12.393 20.5907 16.3929 22.161C19.7172 23.4659 20.3938 23.2064 21.1155 23.1411C21.8371 23.0758 23.4436 22.1936 23.7718 21.2787C24.1 20.3638 24.0997 19.5798 24.0013 19.416C23.903 19.2522 23.6407 19.1549 23.2469 18.9587C22.8532 18.7626 20.9187 17.8147 20.5578 17.6842C20.1968 17.5536 19.9345 17.4883 19.6722 17.8806C19.4099 18.273 18.6562 19.1546 18.4263 19.4166C18.1965 19.6787 17.967 19.711 17.5736 19.5152C16.4134 19.0548 15.3426 18.3968 14.409 17.5709C13.5486 16.7793 12.8108 15.865 12.2197 14.8579C11.9902 14.4662 12.1949 14.2538 12.3926 14.0579C12.5694 13.8826 12.7861 13.6006 12.9831 13.3718C13.1446 13.1738 13.277 12.9539 13.3762 12.7187C13.4286 12.6107 13.4532 12.4913 13.4475 12.3715C13.4419 12.2516 13.4064 12.1351 13.3441 12.0323C13.2448 11.8362 12.4797 9.89889 12.13 9.12417Z" fill="white"/>
<path d="M27.2074 4.59969C24.5072 1.90794 20.916 0.285269 17.1031 0.0340128C13.2902 -0.217244 9.51554 0.92005 6.48246 3.23399C3.44938 5.54794 1.36475 8.88071 0.616959 12.6113C-0.130828 16.342 0.509238 20.216 2.4179 23.5117L0.183594 31.6355L8.53292 29.456C10.8422 30.708 13.4298 31.364 16.0594 31.3642H16.0661C19.181 31.3644 22.226 30.4451 24.8161 28.7227C27.4063 27.0002 29.4252 24.5518 30.6177 21.6871C31.8102 18.8224 32.1227 15.67 31.5157 12.6285C30.9087 9.587 29.4094 6.79297 27.2074 4.59969ZM16.0661 28.7168H16.0626C13.7181 28.717 11.4168 28.0897 9.39951 26.9005L8.92121 26.6182L3.9653 27.9114L5.28801 23.1024L4.97654 22.6096C3.43379 20.1621 2.75181 17.2735 3.03779 14.3981C3.32378 11.5226 4.56153 8.82332 6.55645 6.7245C8.55137 4.62567 11.1903 3.24635 14.0585 2.80336C16.9267 2.36037 19.8614 2.87883 22.4014 4.27725C24.9413 5.67566 26.9424 7.87473 28.0901 10.5287C29.2378 13.1828 29.467 16.1412 28.7417 18.9391C28.0164 21.7369 26.3777 24.2155 24.0832 25.9851C21.7887 27.7547 18.9686 28.7151 16.0661 28.7152V28.7168Z" fill="white"/>
</g>
<defs>
<linearGradient id="paint0_linear_48_14987" x1="15.9999" y1="31.0883" x2="15.9999" y2="0.549408" gradientUnits="userSpaceOnUse">
<stop stop-color="#20B038"/>
<stop offset="1" stop-color="#60D66A"/>
</linearGradient>
<clipPath id="clip0_48_14987">
<rect width="32" height="32" fill="white"/>
</clipPath>
</defs>
</svg>
