<svg width="138" height="121" viewBox="0 0 138 121" fill="none" xmlns="http://www.w3.org/2000/svg">
<path d="M68.7542 0C30.7567 0 7.13818e-10 30.7503 7.13818e-10 68.7541V81.6455C-2.05666e-05 83.2416 0.444415 84.8062 1.28351 86.1639C2.1226 87.5216 3.32319 88.6188 4.75075 89.3326L8.61361 91.2639C9.1537 107.402 22.4045 120.32 38.6742 120.32H45.1199C48.6798 120.32 51.5656 117.434 51.5656 113.874V66.6056C51.5656 63.0457 48.6798 60.1599 45.1199 60.1599H38.6742C30.2567 60.1599 22.6483 63.6188 17.1885 69.1911V68.7541C17.1885 40.3208 40.3208 17.1885 68.7542 17.1885C97.1875 17.1885 120.32 40.3208 120.32 68.7541V69.1911C114.86 63.6188 107.252 60.1599 98.8341 60.1599H92.3884C88.8285 60.1599 85.9427 63.0457 85.9427 66.6056V113.874C85.9427 117.434 88.8285 120.32 92.3884 120.32H98.8341C115.104 120.32 128.355 107.402 128.895 91.2639L132.757 89.3326C134.185 88.6188 135.386 87.5216 136.225 86.1639C137.064 84.8062 137.508 83.2416 137.508 81.6455V68.7541C137.508 30.757 106.758 0 68.7542 0Z" fill="#0700DD"/>
</svg>
