<svg width="138" height="107" viewBox="0 0 138 107" fill="none" xmlns="http://www.w3.org/2000/svg">
<path d="M99.3115 38.1967C99.3115 17.1002 77.081 0 49.6558 0C22.2305 0 0 17.1002 0 38.1967C0 46.378 3.37325 53.941 9.06457 60.1551C5.87514 67.3743 0.601599 73.0895 0.525205 73.1706C0.268148 73.4414 0.0961315 73.7816 0.0304502 74.1491C-0.0352311 74.5166 0.00830712 74.8953 0.155675 75.2383C0.303043 75.5813 0.547769 75.8736 0.859559 76.0789C1.17135 76.2842 1.53651 76.3936 1.90984 76.3935C10.6426 76.3935 17.888 73.4691 23.0923 70.43C30.7794 74.1876 39.8726 76.3935 49.6558 76.3935C77.081 76.3935 99.3115 59.2933 99.3115 38.1967ZM45.8361 61.1148V57.2259C43.1408 57.0874 40.5196 56.1468 38.3472 54.5163C37.4161 53.8168 37.3684 52.4227 38.2111 51.6181L41.0161 48.942C41.6774 48.3117 42.661 48.2831 43.4345 48.7677C44.3584 49.3454 45.4064 49.6558 46.495 49.6558H53.2057C54.7574 49.6558 56.0227 48.2425 56.0227 46.5069C56.0227 45.0865 55.1609 43.8355 53.929 43.4679L43.1862 40.2451C38.7482 38.9129 35.6471 34.654 35.6471 29.8866C35.6471 24.0329 40.1949 19.2774 45.8337 19.127V15.2787C45.8337 14.2235 46.6884 13.3689 47.7436 13.3689H51.5632C52.6184 13.3689 53.4731 14.2235 53.4731 15.2787V19.1676C56.1683 19.3061 58.7896 20.2443 60.962 21.8772C61.8931 22.5767 61.9408 23.9708 61.0981 24.7754L58.293 27.4515C57.6317 28.0818 56.6482 28.1104 55.8747 27.6258C54.9508 27.0457 53.9028 26.7377 52.8142 26.7377H46.1035C44.5517 26.7377 43.2865 28.151 43.2865 29.8866C43.2865 31.307 44.1483 32.558 45.3801 32.9256L56.123 36.1484C60.5609 37.4806 63.662 41.7395 63.662 46.5069C63.662 52.363 59.1142 57.1161 53.4754 57.2665V61.1148C53.4754 62.17 52.6208 63.0246 51.5656 63.0246H47.7459C46.6908 63.0246 45.8361 62.17 45.8361 61.1148ZM128.439 90.7149C134.135 84.5008 137.508 76.9354 137.508 68.7541C137.508 52.7736 124.739 39.1039 106.633 33.4054C106.839 34.9811 106.951 36.5782 106.951 38.1967C106.951 63.4711 81.2493 84.0328 49.6558 84.0328C47.0823 84.0328 44.5661 83.849 42.0809 83.584C49.608 97.3134 67.2669 106.951 87.8525 106.951C97.6357 106.951 106.729 104.745 114.416 100.987C119.62 104.026 126.866 106.951 135.598 106.951C136.362 106.951 137.052 106.495 137.351 105.795C137.654 105.094 137.508 104.282 136.981 103.726C136.907 103.647 131.628 97.9389 128.439 90.7149Z" fill="#0700DD"/>
</svg>
