<svg width="138" height="138" viewBox="0 0 138 138" fill="none" xmlns="http://www.w3.org/2000/svg">
<path d="M68.7541 0C30.773 0 0 30.773 0 68.7541C0 106.735 30.773 137.508 68.7541 137.508C106.735 137.508 137.508 106.735 137.508 68.7541C137.508 30.773 106.735 0 68.7541 0ZM90.9329 46.5754C95.84 46.5754 99.8044 50.5398 99.8044 55.4469C99.8044 60.3539 95.84 64.3184 90.9329 64.3184C86.0259 64.3184 82.0614 60.3539 82.0614 55.4469C82.0614 50.5398 86.0259 46.5754 90.9329 46.5754ZM46.5754 46.5754C51.4824 46.5754 55.4469 50.5398 55.4469 55.4469C55.4469 60.3539 51.4824 64.3184 46.5754 64.3184C41.6683 64.3184 37.7039 60.3539 37.7039 55.4469C37.7039 50.5398 41.6683 46.5754 46.5754 46.5754ZM68.7541 117.547C51.9537 117.547 31.4661 106.929 28.8878 91.6814C28.3334 88.4101 31.4661 85.6932 34.6266 86.7189C42.9991 89.4081 55.4469 90.9329 68.7541 90.9329C82.0614 90.9329 94.5092 89.4081 102.882 86.7189C106.014 85.6932 109.147 88.4101 108.62 91.6814C106.042 106.929 85.5546 117.547 68.7541 117.547Z" fill="#0700DD"/>
</svg>
