<svg width="138" height="138" viewBox="0 0 138 138" fill="none" xmlns="http://www.w3.org/2000/svg">
<path d="M137.508 95.7647V130.142C137.511 131.11 137.322 132.069 136.952 132.964C136.583 133.859 136.041 134.672 135.356 135.356C134.672 136.041 133.859 136.583 132.964 136.952C132.069 137.322 131.11 137.511 130.142 137.508H95.7647C89.1993 137.508 85.915 129.559 90.5467 124.924L101.658 113.813L68.7541 80.9089L35.8412 113.843L46.9615 124.924C51.5932 129.559 48.309 137.508 41.7436 137.508H7.36654C6.39847 137.511 5.43947 137.322 4.54462 136.952C3.64978 136.583 2.83674 136.041 2.15221 135.356C1.46768 134.672 0.925159 133.859 0.555818 132.964C0.186476 132.069 -0.00240615 131.11 2.31382e-05 130.142V95.7647C2.31382e-05 89.1962 7.94665 85.912 12.5845 90.5467L23.6926 101.658L56.6178 68.7541L23.6895 35.8197L12.5845 46.9615C7.94972 51.5963 2.31382e-05 48.3121 2.31382e-05 41.7436V7.36654C-0.00240615 6.39847 0.186476 5.43946 0.555818 4.54462C0.925159 3.64978 1.46768 2.83674 2.15221 2.15221C2.83674 1.46768 3.64978 0.925159 4.54462 0.555818C5.43947 0.186476 6.39847 -0.00240615 7.36654 2.31382e-05H41.7436C48.309 2.31382e-05 51.5932 7.94972 46.9615 12.5845L35.8504 23.6956L68.7541 56.5994L101.667 23.6649L90.5467 12.5845C85.915 7.94972 89.1993 2.31382e-05 95.7647 2.31382e-05H130.142C131.11 -0.00240615 132.069 0.186476 132.964 0.555818C133.859 0.925159 134.672 1.46768 135.356 2.15221C136.041 2.83674 136.583 3.64978 136.952 4.54462C137.322 5.43946 137.511 6.39847 137.508 7.36654V41.7436C137.508 48.3121 129.562 51.5963 124.924 46.9615L113.816 35.8504L80.8905 68.7541L113.819 101.689L124.924 90.5774C129.559 85.912 137.508 89.1962 137.508 95.7647Z" fill="#0700DD"/>
</svg>
