<svg width="138" height="138" viewBox="0 0 138 138" fill="none" xmlns="http://www.w3.org/2000/svg">
<path d="M137.508 68.7541C137.508 106.734 106.723 137.508 68.7541 137.508C30.7849 137.508 0 106.734 0 68.7541C0 30.796 30.7849 0 68.7541 0C106.723 0 137.508 30.796 137.508 68.7541ZM70.5991 22.7332C55.4907 22.7332 45.8546 29.0977 38.2877 40.4091C37.3074 41.8746 37.6354 43.851 39.0404 44.9164L48.6602 52.2105C50.1032 53.3047 52.1592 53.0444 53.2803 51.6222C58.2328 45.3406 61.6287 41.698 69.1667 41.698C74.8303 41.698 81.8357 45.3431 81.8357 50.8351C81.8357 54.987 78.4083 57.1192 72.8162 60.2544C66.2945 63.9103 57.6648 68.4606 57.6648 79.8435V80.9525C57.6648 82.7897 59.1543 84.2793 60.9916 84.2793H76.5167C78.3539 84.2793 79.8435 82.7897 79.8435 80.9525V80.5829C79.8435 72.6923 102.906 72.3637 102.906 51.0111C102.906 34.931 86.2257 22.7332 70.5991 22.7332ZM68.7541 91.4874C61.7221 91.4874 56.0014 97.2081 56.0014 104.24C56.0014 111.272 61.7221 116.993 68.7541 116.993C75.7862 116.993 81.5069 111.272 81.5069 104.24C81.5069 97.2081 75.7862 91.4874 68.7541 91.4874Z" fill="#0700DD"/>
</svg>
